<svg width="151" height="40" viewBox="0 0 151 40" fill="none" xmlns="http://www.w3.org/2000/svg">
<g clip-path="url(#clip0_132_490)">
<path d="M54 29H57V27V11H54V18C53.0274 16.8754 51.5805 16 50 16C46.7478 16 44 19.0791 44 23C44 26.9512 46.7478 30 50 30C51.6109 30 53.0274 29.1853 54 28V29ZM118 20C118.669 20 119.453 20.6049 120 21L122 17C121.271 16.5441 119.82 16 119 16C117.541 16 116.76 16.7539 116 18V17H112L113 19V29H116V21C116.426 20.149 116.906 20 118 20ZM128 26C126.115 26 125 24.9453 125 23C125 21.0243 126.115 20 128 20C129.915 20 131 21.0243 131 23C131 24.9148 129.915 26 128 26ZM47 23C47 21.0243 48.1155 20 50 20C51.9148 20 54 21.0243 54 23C54 24.9452 51.9148 26 50 26C48.1155 26.0304 47 24.9452 47 23ZM142 26C140.115 26 139 24.9453 139 23C139 21.0243 140.115 20 142 20C143.915 20 146 21.0243 146 23C145.969 24.9148 143.884 26 142 26ZM65 20C66.6718 20 67.6353 20.5411 68 22H62C62.3344 20.5106 63.3283 20 65 20ZM104 20C105.671 20 106.635 20.5411 107 22H101C101.395 20.5106 102.358 20 104 20ZM88 29H94L97 17H93L91 27L88 17H85L88 29ZM80 29H83V17H80V29ZM66 30C67.8237 30 69.5107 28.9422 71 28L70 25C68.8449 25.6382 67.3071 26 66 26C64.298 26 62.5471 25.2461 62 24H72C72.0912 23.5137 72 23.5774 72 23C72 19.0487 68.617 16 65 16C61.3223 16 59 19.0487 59 23C58.9695 27.0425 61.8663 30 66 30ZM149 23C149 19.0487 145.677 16 142 16C138.291 16 136 19.0791 136 23C136 26.9208 138.322 30 142 30C145.677 30 149 26.9512 149 23ZM105 30C106.824 30 108.511 28.9726 110 28L108 25C106.845 25.6382 106.307 26 105 26C103.297 26 101.547 26.2462 101 25H110C110.091 24.5138 111 23.5775 111 23C111 19.0487 107.617 16 104 16C100.322 16 98 19.0487 98 23C98 27.0728 100.866 30 105 30ZM128 30C131.708 30 134 26.9208 134 23C134 19.0791 131.678 16 128 16C124.291 16 121 19.0791 121 23C121 26.9208 124.291 30 128 30ZM74 29H77V11H74V29ZM82 15C83.1247 15 84 14.1551 84 13C84 11.8451 83.1551 11 82 11C80.845 11 80 11.8451 80 13C80 14.1551 80.8147 15 82 15ZM26 0L24 17L21 2L11 4L14 19L0 22L2 34L27 39L33 27L36 1L26 0ZM18 25C17.4833 25.4863 16.7599 25.2432 16 25C15.2705 24.7568 14.7568 24.0941 15 23C15.2127 22.2097 16.4833 22 17 22C16.8176 21.9088 17.1824 22 17 22C17.3344 22.152 17.8785 22.5137 18 23C18.1824 23.7294 18.5167 24.5137 18 25ZM25 26C24.6049 26.6687 24.003 26.4863 23 26C22.3313 25.6656 21.9088 25.5167 22 25C22.0305 24.7265 21.8176 24.2128 22 24C22.2432 23.6961 22.5745 23 23 23C23.7599 22.9696 24.6353 23.3921 25 24C25.3648 24.6079 25.3648 25.3618 25 26Z" fill="#2C2C2C"/>
</g>
<defs>
<clipPath id="clip0_132_490">
<rect width="151" height="40" fill="white"/>
</clipPath>
</defs>
</svg>
