<svg width="102" height="40" viewBox="0 0 102 40" fill="none" xmlns="http://www.w3.org/2000/svg">
<g clip-path="url(#clip0_132_511)">
<path fill-rule="evenodd" clip-rule="evenodd" d="M99.8507 25.7118C95.6233 32.7801 88.8807 31.256 86.8699 29.6502C86.0142 30.2228 83.8782 30.7797 81.8773 30.6348C77.6161 30.3263 76.8847 24.7272 76.8847 24.7272C76.9153 24.7513 75.5902 24.7347 74.8877 24.7272C74.8786 26.4884 73.0626 30.6886 68.8965 30.6348C64.2216 30.5746 62.9054 23.7427 62.9054 23.7427C62.9054 23.7427 62.6773 25.0773 60.9084 25.7118C60.9974 24.3588 60.5203 30.5347 54.9172 30.6348C50.4876 30.7139 49.9246 23.7427 49.9246 23.7427C49.9246 23.7427 48.4183 24.4542 46.9291 24.7272C47.0237 23.3522 47.5402 30.6579 41.9365 30.6348C38.1495 30.6193 36.8432 26.3089 36.9438 25.7118C37.0723 24.951 35.6297 30.7248 31.9512 30.6348C30.4333 30.5908 28.6673 30.1106 27.9571 28.6656C27.0065 29.7383 26.5099 30.6348 24.9616 30.6348C22.1823 30.6348 20.76 28.3213 20.9675 21.7735C20.9852 20.9969 20.7518 20.9051 19.969 20.7889C19.4991 20.7116 19.4796 20.8661 18.9704 20.7889C18.8073 21.3259 16.7401 30.452 11.9808 30.6348C10.3841 30.6961 9.7022 29.6779 8.98522 28.6656C7.88615 30.0995 6.05945 30.6348 3.99261 30.6348C0.491554 30.6348 -1 28.1704 -1 24.7272C-1 21.284 0.491554 18.8197 3.99261 18.8197C4.61163 18.8197 5.42414 18.6571 5.98965 18.8197C4.82666 8.37719 7.58111 7.00473 9.98374 7.00473C12.2904 7.00473 15.5286 12.3195 9.98374 25.7118C11.2148 29.7064 14.6996 29.012 15.9749 20.7889C16.2344 19.1174 14.8954 17.1654 15.9749 16.8506C17.9482 16.2752 18.0452 17.5475 18.9704 17.8352C19.9488 18.139 21.0268 18.6262 21.966 18.8197C23.5709 19.1288 24.1586 19.8798 23.9631 21.7735C23.7282 24.1696 23.7092 27.2559 24.9616 27.681C25.8647 27.9897 26.6692 26.7225 26.9586 25.7118C27.2479 24.7012 27.9315 23.4994 27.9571 22.7581C27.9963 21.1738 27.6832 20.0179 27.9571 18.8197C28.0744 18.3561 28.4238 18.8407 28.9557 18.8197C29.3933 18.8087 29.6018 18.5493 29.9542 18.8197C30.4238 19.1677 31.0066 18.8751 30.9527 19.8043C30.4066 33.054 34.692 27.0696 35.9453 21.7735C35.499 15.7848 35.1356 7.15337 38.9409 7.00473C40.9199 6.92744 41.8402 7.80685 41.9365 8.9739C42.2087 12.27 40.9462 18.1016 38.9409 21.7735C37.7948 29.2658 43.9474 30.7076 44.932 24.7272C43.3211 23.9719 41.5183 20.3097 42.935 18.8197C43.7299 17.9835 46.8749 20.1382 46.9291 22.7581C48.5522 22.33 48.9036 20.6391 48.9261 20.7889C48.4799 14.8002 49.1146 7.15337 52.9202 7.00473C54.899 6.92744 55.8195 7.80685 55.9158 8.9739C56.188 12.2701 54.9252 18.1016 52.9202 21.7735C51.774 29.2657 57.927 30.7076 58.9113 24.7272C57.7187 24.5003 54.4631 20.6435 55.9158 18.8197C56.6921 17.8451 60.5393 20.7386 60.9084 22.7581C62.4676 22.3229 62.8831 20.6416 62.9054 20.7889C62.4591 14.8005 62.0954 7.15337 65.901 7.00473C67.8798 6.92744 68.8003 7.80685 68.8965 8.9739C69.1688 12.27 67.9063 18.1016 65.901 21.7735C64.755 29.2658 70.9075 30.7076 71.8921 24.7272C70.2531 24.4581 68.0204 20.5763 69.8951 18.8197C70.6441 18.118 73.2192 20.6797 73.8892 22.7581C74.82 22.7228 75.762 21.8054 75.8862 21.7735C74.4002 14.7431 75.7865 7.07514 79.8803 7.00473C82.093 6.9667 83.8253 7.20843 82.8759 13.8968C81.9695 20.2784 78.8742 23.7017 78.8818 23.7427C79.0713 24.5072 80.6632 31.0569 84.8729 27.681C84.655 27.1944 83.9963 26.3141 83.8744 25.7118C83.1766 22.2036 85.1419 18.4756 88.867 17.8352C91.0013 17.4683 92.5432 18.4787 92.8611 20.7889C93.3841 24.5691 90.1832 27.0871 88.867 27.681C88.2775 27.3507 94.3324 31.2633 97.8537 23.7427C98.0579 23.3133 98.5333 23.5213 98.8522 23.7427C99.0774 23.899 100.447 24.6974 99.8507 25.7118ZM6.98818 23.7427C6.80901 23.2144 6.11968 22.2778 5.98965 21.7735C5.27358 21.1594 4.91175 20.7889 3.99261 20.7889C1.94999 20.7889 0.997044 22.7189 0.997044 24.7272C0.997044 26.7354 1.94997 28.6656 3.99261 28.6656C5.76279 28.6656 7.57566 27.3921 7.9867 25.7118C7.699 25.0568 7.22788 24.4497 6.98818 23.7427ZM9.98374 8.9739C8.54848 8.9739 7.89222 12.9854 7.9867 15.866C8.07028 18.4126 8.61089 20.7689 8.98522 21.7735C8.90038 21.64 9.08026 21.8994 8.98522 21.7735C11.4773 16.3886 10.9563 8.9739 9.98374 8.9739ZM39.9394 8.9739C38.0844 8.76409 37.7121 17.1103 37.9424 18.8197C38.9058 17.2998 40.9637 9.38315 39.9394 8.9739ZM52.9202 8.9739C51.0652 8.76409 51.6913 17.1103 51.9217 18.8197C52.885 17.2998 53.9446 9.38315 52.9202 8.9739ZM66.8995 9.95848C65.0444 9.74867 64.6721 17.1102 64.9025 18.8197C65.8658 17.2996 67.9238 10.3677 66.8995 9.95848ZM79.8803 8.9739C76.9901 9.54626 77.4443 19.1222 77.8832 20.7889C81.2876 16.1775 81.5766 8.80069 79.8803 8.9739ZM90.864 20.7889C90.7171 20.183 89.3741 19.7245 88.867 19.8043C87.4158 19.9998 86.3251 22.0136 86.8699 24.7272C86.9912 25.3316 86.8749 25.7303 86.8699 25.7118C90.1177 23.5631 91.105 21.9306 90.864 20.7889ZM28.9557 15.866C28.5409 15.866 28.302 16.0932 27.9571 15.866C27.6123 15.6388 28.1159 15.2592 27.9571 14.8814C27.7983 14.5035 26.8777 14.298 26.9586 13.8968C27.0394 13.4957 27.6639 13.2016 27.9571 12.9122C28.2504 12.623 28.5489 12.0075 28.9557 11.9276C29.3624 11.8478 29.571 11.7711 29.9542 11.9276C30.3374 12.0842 30.7223 12.5721 30.9527 12.9122C31.1831 13.2524 31.9512 13.4878 31.9512 13.8968C31.9512 14.1683 31.0581 14.6305 30.9527 14.8814C30.8474 15.1323 31.1474 15.6739 30.9527 15.866C30.758 16.0579 30.2086 15.7622 29.9542 15.866C29.6998 15.97 29.2311 15.866 28.9557 15.866Z" fill="#2C2C2C"/>
</g>
<defs>
<clipPath id="clip0_132_511">
<rect width="102" height="40" fill="white"/>
</clipPath>
</defs>
</svg>
