<svg width="120" height="40" viewBox="0 0 120 40" fill="none" xmlns="http://www.w3.org/2000/svg">
<g clip-path="url(#clip0_132_493)">
<path d="M50 20C50 25.6195 45.3951 30 40 30C34.6049 30 31 25.6195 31 20C31 14.3409 34.6049 11 40 11C45.3951 11 50 14.3409 50 20ZM46 20C46 16.4883 42.9572 14 40 14C37.0429 14 35 16.4883 35 20C35 23.4764 37.0429 26 40 26C42.9572 26 46 23.472 46 20Z" fill="#2C2C2C"/>
<path d="M71 20C71 25.6195 66.3951 30 61 30C55.6049 30 52 25.6195 52 20C52 14.3452 55.6049 11 61 11C66.3951 11 71 14.3409 71 20ZM67 20C67 16.4883 63.9571 14 61 14C58.0428 14 56 16.4883 56 20C56 23.4764 58.0428 26 61 26C63.9571 26 67 23.472 67 20Z" fill="#2C2C2C"/>
<path d="M91 11V29C91 36.2081 87.0254 39 82 39C77.2694 39 74.0737 35.5875 73 33L77 31C77.6645 32.5886 79.3773 35 82 35C85.2168 35 87 32.736 87 29V28C86.0407 29.1837 84.3323 30 82 30C77.1198 30 73 25.4699 73 20C73 14.4906 77.1198 11 82 11C84.3279 11 86.0363 11.8515 87 13V11H91ZM87 20C87 16.5632 84.9175 14 82 14C79.0428 14 77 16.5632 77 20C77 23.4016 79.0428 26 82 26C84.9175 26 87 23.4016 87 20Z" fill="#2C2C2C"/>
<path d="M99 1V29H95V1H99Z" fill="#2C2C2C"/>
<path d="M115 23L118 26C116.926 27.5886 114.472 30 110 30C104.455 30 101 25.4743 101 20C101 14.1957 104.97 11 110 11C115.065 11 117.191 14.8217 118 17L119 18L105 23C105.999 24.9583 107.823 26 110 26C112.184 26 113.89 24.6282 115 23ZM105 20L113 16C112.521 14.781 111.698 14 110 14C107.823 14 104.889 16.2331 105 20Z" fill="#2C2C2C"/>
<path d="M14.9687 18V13H28.9395C29.0756 13.7217 28.9395 15.0759 28.9395 16C28.9395 19.1068 27.6794 23.2629 24.9478 26C22.2911 28.7723 19.4655 30 14.9687 30C6.63385 30 0 23.3523 0 15C0 6.64779 6.63385 0 14.9687 0C19.5796 0 22.48 1.6369 24.9478 4L21.9541 7C20.1844 5.33659 18.2534 4 14.9687 4C8.88224 4 3.99166 8.90088 3.99166 15C3.99166 21.0992 8.88224 26 14.9687 26C18.9166 26 21.5116 24.4434 22.952 23C24.1201 21.8294 24.6449 20.2839 24.9478 18H14.9687Z" fill="#2C2C2C"/>
</g>
<defs>
<clipPath id="clip0_132_493">
<rect width="120" height="40" fill="white"/>
</clipPath>
</defs>
</svg>
