<svg width="148" height="40" viewBox="0 0 148 40" fill="none" xmlns="http://www.w3.org/2000/svg">
<path fill-rule="evenodd" clip-rule="evenodd" d="M21 12C21 9.79086 19.2091 8 17 8H8V0H17C23.6274 0 29 5.37258 29 12C29 14.3425 28.3288 16.5282 27.1682 18.3753C30.101 20.5631 32 24.0598 32 28C32 34.6274 26.6274 40 20 40H8V32H20C22.2091 32 24 30.2091 24 28C24 25.7909 22.2091 24 20 24H17H8V16H17C19.2091 16 21 14.2091 21 12Z" fill="url(#paint0_linear_132_811)"/>
<path d="M8 0H15.5L12.3074 1.66121C9.66048 3.03845 8 5.77425 8 8.758V31.242C8 34.2258 9.66048 36.9616 12.3074 38.3388L15.5 40H8C3.58172 40 0 36.4183 0 32V8C0 3.58172 3.58172 0 8 0Z" fill="#2952E1"/>
<path d="M57.7216 28.5V11.0455H64.4034C65.6648 11.0455 66.7131 11.2443 67.5483 11.642C68.3892 12.0341 69.017 12.571 69.4318 13.2528C69.8523 13.9347 70.0625 14.7074 70.0625 15.571C70.0625 16.2812 69.9261 16.8892 69.6534 17.3949C69.3807 17.8949 69.0142 18.3011 68.554 18.6136C68.0938 18.9261 67.5795 19.1506 67.0114 19.2869V19.4574C67.6307 19.4915 68.2244 19.6818 68.7926 20.0284C69.3665 20.3693 69.8352 20.8523 70.1989 21.4773C70.5625 22.1023 70.7443 22.858 70.7443 23.7443C70.7443 24.6477 70.5256 25.4602 70.0881 26.1818C69.6506 26.8977 68.9915 27.4631 68.1108 27.8778C67.2301 28.2926 66.1222 28.5 64.7869 28.5H57.7216ZM60.8835 25.858H64.2841C65.4318 25.858 66.2585 25.6392 66.7642 25.2017C67.2756 24.7585 67.5312 24.1903 67.5312 23.4972C67.5312 22.9801 67.4034 22.5142 67.1477 22.0994C66.892 21.679 66.5284 21.3494 66.0568 21.1108C65.5852 20.8665 65.0227 20.7443 64.3693 20.7443H60.8835V25.858ZM60.8835 18.4688H64.0114C64.5568 18.4688 65.0483 18.3693 65.4858 18.1705C65.9233 17.9659 66.267 17.679 66.517 17.3097C66.7727 16.9347 66.9006 16.4915 66.9006 15.9801C66.9006 15.304 66.6619 14.7472 66.1847 14.3097C65.7131 13.8722 65.0114 13.6534 64.0795 13.6534H60.8835V18.4688ZM77.1257 28.7642C76.2962 28.7642 75.549 28.6165 74.8842 28.321C74.2251 28.0199 73.7024 27.5767 73.3161 26.9915C72.9354 26.4062 72.745 25.6847 72.745 24.8267C72.745 24.0881 72.8814 23.4773 73.1541 22.9943C73.4268 22.5114 73.799 22.125 74.2706 21.8352C74.7422 21.5455 75.2734 21.3267 75.8643 21.179C76.4609 21.0256 77.0774 20.9148 77.7138 20.8466C78.4808 20.767 79.103 20.696 79.5803 20.6335C80.0575 20.5653 80.4041 20.4631 80.62 20.3267C80.8416 20.1847 80.9524 19.9659 80.9524 19.6705V19.6193C80.9524 18.9773 80.7621 18.4801 80.3814 18.1278C80.0007 17.7756 79.4524 17.5994 78.7365 17.5994C77.9808 17.5994 77.3814 17.7642 76.9382 18.0938C76.5007 18.4233 76.2053 18.8125 76.0518 19.2614L73.1712 18.8523C73.3984 18.0568 73.7734 17.392 74.2962 16.858C74.8189 16.3182 75.4581 15.9148 76.2138 15.6477C76.9695 15.375 77.8047 15.2386 78.7195 15.2386C79.3501 15.2386 79.978 15.3125 80.603 15.4602C81.228 15.608 81.799 15.8523 82.3161 16.1932C82.8331 16.5284 83.2479 16.9858 83.5604 17.5653C83.8786 18.1449 84.0376 18.8693 84.0376 19.7386V28.5H81.0717V26.7017H80.9695C80.782 27.0653 80.5178 27.4062 80.1768 27.7244C79.8416 28.0369 79.4183 28.2898 78.907 28.483C78.4013 28.6705 77.8075 28.7642 77.1257 28.7642ZM77.9268 26.4972C78.5462 26.4972 79.0831 26.375 79.5376 26.1307C79.9922 25.8807 80.3416 25.5511 80.5859 25.142C80.8359 24.733 80.9609 24.2869 80.9609 23.804V22.2614C80.8643 22.3409 80.6996 22.4148 80.4666 22.483C80.2393 22.5511 79.9837 22.6108 79.6996 22.6619C79.4155 22.7131 79.1342 22.7585 78.8558 22.7983C78.5774 22.8381 78.3359 22.8722 78.1314 22.9006C77.6712 22.9631 77.2592 23.0653 76.8956 23.2074C76.532 23.3494 76.245 23.5483 76.0348 23.804C75.8246 24.054 75.7195 24.3778 75.7195 24.7756C75.7195 25.3438 75.9268 25.7727 76.3416 26.0625C76.7564 26.3523 77.2848 26.4972 77.9268 26.4972ZM87.1399 28.5V15.4091H90.1314V17.5909H90.2678C90.5064 16.8352 90.9155 16.2528 91.495 15.8438C92.0803 15.429 92.7479 15.2216 93.4979 15.2216C93.6683 15.2216 93.8587 15.2301 94.0689 15.2472C94.2848 15.2585 94.4638 15.2784 94.6058 15.3068V18.1449C94.4751 18.0994 94.2678 18.0597 93.9837 18.0256C93.7053 17.9858 93.4354 17.9659 93.174 17.9659C92.6115 17.9659 92.1058 18.0881 91.657 18.3324C91.2138 18.571 90.8643 18.9034 90.6087 19.3295C90.353 19.7557 90.2251 20.2472 90.2251 20.804V28.5H87.1399ZM101.912 28.7557C100.599 28.7557 99.4659 28.483 98.5114 27.9375C97.5625 27.3864 96.8324 26.608 96.321 25.6023C95.8097 24.5909 95.554 23.4006 95.554 22.0312C95.554 20.6847 95.8097 19.5028 96.321 18.4858C96.8381 17.4631 97.5597 16.6676 98.4858 16.0994C99.4119 15.5256 100.5 15.2386 101.75 15.2386C102.557 15.2386 103.318 15.3693 104.034 15.6307C104.756 15.8864 105.392 16.2841 105.943 16.8239C106.5 17.3636 106.938 18.0511 107.256 18.8864C107.574 19.7159 107.733 20.7045 107.733 21.8523V22.7983H97.0028V20.7188H104.776C104.77 20.1278 104.642 19.6023 104.392 19.142C104.142 18.6761 103.793 18.3097 103.344 18.0426C102.901 17.7756 102.384 17.642 101.793 17.642C101.162 17.642 100.608 17.7955 100.131 18.1023C99.6534 18.4034 99.2813 18.8011 99.0142 19.2955C98.7528 19.7841 98.6193 20.321 98.6136 20.9062V22.7216C98.6136 23.483 98.7528 24.1364 99.0312 24.6818C99.3097 25.2216 99.6989 25.6364 100.199 25.9261C100.699 26.2102 101.284 26.3523 101.955 26.3523C102.403 26.3523 102.81 26.2898 103.173 26.1648C103.537 26.0341 103.852 25.8438 104.119 25.5938C104.386 25.3438 104.588 25.0341 104.724 24.6648L107.605 24.9886C107.423 25.75 107.077 26.4148 106.565 26.983C106.06 27.5455 105.412 27.983 104.622 28.2955C103.832 28.6023 102.929 28.7557 101.912 28.7557ZM122.347 28.5H116.433V11.0455H122.467C124.2 11.0455 125.688 11.3949 126.933 12.0938C128.183 12.7869 129.143 13.7841 129.813 15.0852C130.484 16.3864 130.819 17.9432 130.819 19.7557C130.819 21.5739 130.481 23.1364 129.805 24.4432C129.134 25.75 128.165 26.7528 126.898 27.4517C125.637 28.1506 124.12 28.5 122.347 28.5ZM119.594 25.7642H122.194C123.41 25.7642 124.424 25.5426 125.237 25.0994C126.049 24.6506 126.66 23.983 127.069 23.0966C127.478 22.2045 127.683 21.0909 127.683 19.7557C127.683 18.4205 127.478 17.3125 127.069 16.4318C126.66 15.5455 126.055 14.8835 125.254 14.446C124.458 14.0028 123.469 13.7812 122.288 13.7812H119.594V25.7642ZM143.309 15.8438C143.229 15.0994 142.894 14.5199 142.303 14.1051C141.718 13.6903 140.957 13.483 140.019 13.483C139.36 13.483 138.795 13.5824 138.323 13.7812C137.852 13.9801 137.491 14.25 137.241 14.5909C136.991 14.9318 136.863 15.321 136.857 15.7585C136.857 16.1222 136.94 16.4375 137.104 16.7045C137.275 16.9716 137.505 17.1989 137.795 17.3864C138.085 17.5682 138.406 17.7216 138.758 17.8466C139.11 17.9716 139.465 18.0767 139.823 18.1619L141.46 18.571C142.119 18.7244 142.752 18.9318 143.36 19.1932C143.974 19.4545 144.522 19.7841 145.005 20.1818C145.494 20.5795 145.88 21.0597 146.164 21.6222C146.448 22.1847 146.59 22.8437 146.59 23.5994C146.59 24.6222 146.329 25.5227 145.806 26.3011C145.283 27.0739 144.528 27.679 143.539 28.1165C142.556 28.5483 141.366 28.7642 139.968 28.7642C138.61 28.7642 137.431 28.554 136.431 28.1335C135.437 27.7131 134.658 27.0994 134.096 26.2926C133.539 25.4858 133.238 24.5028 133.192 23.3438H136.303C136.349 23.9517 136.536 24.4574 136.866 24.8608C137.195 25.2642 137.624 25.5653 138.153 25.7642C138.687 25.9631 139.283 26.0625 139.942 26.0625C140.63 26.0625 141.232 25.9602 141.749 25.7557C142.272 25.5455 142.681 25.2557 142.977 24.8864C143.272 24.5114 143.423 24.0739 143.428 23.5739C143.423 23.1193 143.289 22.7443 143.028 22.4489C142.766 22.1477 142.4 21.8977 141.928 21.6989C141.462 21.4943 140.917 21.3125 140.292 21.1534L138.306 20.642C136.869 20.2727 135.732 19.7131 134.897 18.9631C134.067 18.2074 133.653 17.2045 133.653 15.9545C133.653 14.9261 133.931 14.0256 134.488 13.2528C135.05 12.4801 135.815 11.8807 136.781 11.4545C137.746 11.0227 138.84 10.8068 140.062 10.8068C141.3 10.8068 142.386 11.0227 143.317 11.4545C144.255 11.8807 144.991 12.4744 145.525 13.2358C146.059 13.9915 146.335 14.8608 146.352 15.8438H143.309Z" fill="#2952E1"/>
<defs>
<linearGradient id="paint0_linear_132_811" x1="33.5001" y1="20.4903" x2="12.5514" y2="33.8244" gradientUnits="userSpaceOnUse">
<stop stop-color="#2952E1"/>
<stop offset="1" stop-color="#11319F"/>
</linearGradient>
</defs>
</svg>
