<svg width="125" height="40" viewBox="0 0 125 40" fill="none" xmlns="http://www.w3.org/2000/svg">
<path fill-rule="evenodd" clip-rule="evenodd" d="M21 12C21 9.79086 19.2091 8 17 8H8V0H17C23.6274 0 29 5.37258 29 12C29 14.3425 28.3288 16.5282 27.1682 18.3753C30.101 20.5631 32 24.0598 32 28C32 34.6274 26.6274 40 20 40H8V32H20C22.2091 32 24 30.2091 24 28C24 25.7909 22.2091 24 20 24H17H8V16H17C19.2091 16 21 14.2091 21 12Z" fill="url(#paint0_linear_132_609)"/>
<path d="M8 0H15.5L12.3074 1.66121C9.66048 3.03845 8 5.77425 8 8.758V31.242C8 34.2258 9.66048 36.9616 12.3074 38.3388L15.5 40H8C3.58172 40 0 36.4183 0 32V8C0 3.58172 3.58172 0 8 0Z" fill="#2952E1"/>
<path d="M49.4347 27V12.4545H55.0028C56.054 12.4545 56.9276 12.6203 57.6236 12.9517C58.3243 13.2784 58.8475 13.7259 59.1932 14.294C59.5436 14.8622 59.7188 15.5062 59.7188 16.2259C59.7188 16.8177 59.6051 17.3243 59.3778 17.7457C59.1506 18.1624 58.8452 18.5009 58.4616 18.7614C58.0781 19.0218 57.6496 19.2088 57.1761 19.3224V19.4645C57.6922 19.4929 58.187 19.6515 58.6605 19.9403C59.1387 20.2244 59.5294 20.6269 59.8324 21.1477C60.1354 21.6686 60.2869 22.2983 60.2869 23.0369C60.2869 23.7898 60.1046 24.4669 59.7401 25.0682C59.3755 25.6648 58.8262 26.1359 58.0923 26.4815C57.3584 26.8272 56.4351 27 55.3224 27H49.4347ZM52.0696 24.7983H54.9034C55.8598 24.7983 56.5488 24.616 56.9702 24.2514C57.3963 23.8821 57.6094 23.4086 57.6094 22.831C57.6094 22.4001 57.5028 22.0118 57.2898 21.6662C57.0767 21.3158 56.7737 21.0412 56.3807 20.8423C55.9877 20.6387 55.5189 20.5369 54.9744 20.5369H52.0696V24.7983ZM52.0696 18.6406H54.6761C55.1307 18.6406 55.5402 18.5578 55.9048 18.392C56.2694 18.2216 56.5559 17.9825 56.7642 17.6747C56.9773 17.3622 57.0838 16.9929 57.0838 16.5668C57.0838 16.0033 56.8849 15.5393 56.4872 15.1747C56.0942 14.8101 55.5095 14.6278 54.733 14.6278H52.0696V18.6406ZM65.6048 27.2202C64.9135 27.2202 64.2908 27.0971 63.7369 26.8509C63.1876 26.5999 62.752 26.2306 62.43 25.7429C62.1128 25.2552 61.9542 24.6539 61.9542 23.9389C61.9542 23.3234 62.0678 22.8144 62.2951 22.4119C62.5224 22.0095 62.8325 21.6875 63.2255 21.446C63.6185 21.2045 64.0612 21.0223 64.5536 20.8991C65.0508 20.7713 65.5645 20.679 66.0948 20.6222C66.734 20.5559 67.2525 20.4967 67.6502 20.4446C68.0479 20.3878 68.3368 20.3026 68.5167 20.1889C68.7013 20.0705 68.7937 19.8883 68.7937 19.642V19.5994C68.7937 19.0644 68.6351 18.6501 68.3178 18.3565C68.0006 18.063 67.5437 17.9162 66.9471 17.9162C66.3174 17.9162 65.8178 18.0535 65.4485 18.3281C65.0839 18.6027 64.8377 18.9271 64.7099 19.3011L62.3093 18.9602C62.4987 18.2973 62.8112 17.7434 63.2468 17.2983C63.6824 16.8485 64.2151 16.5123 64.8448 16.2898C65.4746 16.0625 66.1706 15.9489 66.9329 15.9489C67.4585 15.9489 67.9817 16.0104 68.5025 16.1335C69.0233 16.2566 69.4992 16.4602 69.93 16.7443C70.3609 17.0237 70.7066 17.4048 70.967 17.8878C71.2321 18.3707 71.3647 18.9744 71.3647 19.6989V27H68.8931V25.5014H68.8079C68.6516 25.8045 68.4315 26.0885 68.1474 26.3537C67.868 26.6141 67.5153 26.8248 67.0891 26.9858C66.6677 27.142 66.1729 27.2202 65.6048 27.2202ZM66.2724 25.331C66.7885 25.331 67.2359 25.2292 67.6147 25.0256C67.9935 24.8172 68.2847 24.5426 68.4883 24.2017C68.6966 23.8608 68.8008 23.4891 68.8008 23.0866V21.8011C68.7203 21.8674 68.583 21.929 68.3888 21.9858C68.1995 22.0426 67.9864 22.0923 67.7496 22.1349C67.5129 22.1776 67.2785 22.2154 67.0465 22.2486C66.8145 22.2817 66.6133 22.3101 66.4428 22.3338C66.0593 22.3859 65.716 22.4711 65.413 22.5895C65.11 22.7079 64.8709 22.8736 64.6957 23.0866C64.5205 23.295 64.4329 23.5649 64.4329 23.8963C64.4329 24.3698 64.6057 24.7273 64.9513 24.9688C65.297 25.2102 65.7373 25.331 66.2724 25.331ZM73.9499 27V16.0909H76.4428V17.9091H76.5565C76.7553 17.2794 77.0962 16.794 77.5792 16.4531C78.0669 16.1075 78.6232 15.9347 79.2482 15.9347C79.3903 15.9347 79.5489 15.9418 79.7241 15.956C79.904 15.9654 80.0531 15.982 80.1715 16.0057V18.3707C80.0626 18.3329 79.8898 18.2997 79.6531 18.2713C79.421 18.2382 79.1961 18.2216 78.9783 18.2216C78.5096 18.2216 78.0882 18.3234 77.7141 18.527C77.3448 18.7259 77.0536 19.0028 76.8406 19.358C76.6275 19.7131 76.521 20.1226 76.521 20.5866V27H73.9499ZM86.2599 27.2131C85.1662 27.2131 84.2216 26.9858 83.4261 26.5312C82.6354 26.072 82.027 25.4233 81.6009 24.5852C81.1747 23.7424 80.9616 22.7505 80.9616 21.6094C80.9616 20.4872 81.1747 19.5024 81.6009 18.6548C82.0317 17.8026 82.633 17.1397 83.4048 16.6662C84.1766 16.188 85.0833 15.9489 86.125 15.9489C86.7973 15.9489 87.4318 16.0578 88.0284 16.2756C88.6297 16.4886 89.16 16.8201 89.6193 17.2699C90.0833 17.7197 90.4479 18.2926 90.7131 18.9886C90.9782 19.6799 91.1108 20.5038 91.1108 21.4602V22.2486H82.169V20.5156H88.6463C88.6416 20.0232 88.535 19.5852 88.3267 19.2017C88.1184 18.8134 87.8272 18.508 87.4531 18.2855C87.0838 18.063 86.6529 17.9517 86.1605 17.9517C85.6349 17.9517 85.1733 18.0795 84.7756 18.3352C84.3778 18.5862 84.0677 18.9176 83.8452 19.3295C83.6274 19.7367 83.5161 20.1842 83.5114 20.6719V22.1847C83.5114 22.8191 83.6274 23.3636 83.8594 23.8182C84.0914 24.268 84.4157 24.6136 84.8324 24.8551C85.2491 25.0919 85.7367 25.2102 86.2955 25.2102C86.6695 25.2102 87.008 25.1581 87.3111 25.054C87.6141 24.9451 87.8769 24.7865 88.0994 24.5781C88.322 24.3698 88.4901 24.1117 88.6037 23.804L91.0043 24.0739C90.8527 24.7083 90.5639 25.2623 90.1378 25.7358C89.7164 26.2045 89.1766 26.5691 88.5185 26.8295C87.8603 27.0852 87.1075 27.2131 86.2599 27.2131ZM103.289 27H98.3604V12.4545H103.389C104.833 12.4545 106.074 12.7457 107.11 13.3281C108.152 13.9058 108.952 14.7367 109.511 15.821C110.07 16.9053 110.349 18.2027 110.349 19.7131C110.349 21.2282 110.067 22.5303 109.504 23.6193C108.945 24.7083 108.138 25.544 107.082 26.1264C106.031 26.7088 104.767 27 103.289 27ZM100.995 24.7202H103.162C104.175 24.7202 105.02 24.5355 105.697 24.1662C106.374 23.7921 106.883 23.2358 107.224 22.4972C107.565 21.7538 107.735 20.8258 107.735 19.7131C107.735 18.6004 107.565 17.6771 107.224 16.9432C106.883 16.2045 106.379 15.6529 105.711 15.2884C105.048 14.919 104.225 14.7344 103.24 14.7344H100.995V24.7202ZM120.757 16.4531C120.691 15.8329 120.412 15.3499 119.919 15.0043C119.432 14.6586 118.797 14.4858 118.016 14.4858C117.467 14.4858 116.996 14.5687 116.603 14.7344C116.21 14.9001 115.909 15.125 115.701 15.4091C115.492 15.6932 115.386 16.0175 115.381 16.3821C115.381 16.6851 115.45 16.9479 115.587 17.1705C115.729 17.393 115.921 17.5824 116.162 17.7386C116.404 17.8902 116.671 18.018 116.965 18.1222C117.258 18.2263 117.554 18.3139 117.853 18.3849L119.216 18.7259C119.766 18.8537 120.293 19.0265 120.8 19.2443C121.311 19.4621 121.768 19.7367 122.171 20.0682C122.578 20.3996 122.9 20.7997 123.137 21.2685C123.373 21.7372 123.492 22.2865 123.492 22.9162C123.492 23.7685 123.274 24.5189 122.838 25.1676C122.403 25.8116 121.773 26.3158 120.949 26.6804C120.13 27.0402 119.138 27.2202 117.973 27.2202C116.842 27.2202 115.859 27.045 115.026 26.6946C114.197 26.3442 113.549 25.8329 113.08 25.1605C112.616 24.4882 112.365 23.669 112.327 22.7031H114.919C114.957 23.2098 115.114 23.6312 115.388 23.9673C115.663 24.3035 116.02 24.5545 116.461 24.7202C116.906 24.8859 117.403 24.9688 117.952 24.9688C118.525 24.9688 119.027 24.8835 119.458 24.7131C119.893 24.5379 120.234 24.2964 120.48 23.9886C120.727 23.6761 120.852 23.3116 120.857 22.8949C120.852 22.5161 120.741 22.2036 120.523 21.9574C120.305 21.7064 120 21.4981 119.607 21.3324C119.219 21.1619 118.764 21.0104 118.243 20.8778L116.588 20.4517C115.391 20.1439 114.444 19.6776 113.748 19.0526C113.056 18.4228 112.711 17.5871 112.711 16.5455C112.711 15.6884 112.943 14.938 113.407 14.294C113.875 13.6501 114.512 13.1506 115.317 12.7955C116.122 12.4356 117.033 12.2557 118.051 12.2557C119.084 12.2557 119.988 12.4356 120.765 12.7955C121.546 13.1506 122.159 13.6454 122.604 14.2798C123.049 14.9096 123.279 15.634 123.293 16.4531H120.757Z" fill="white"/>
<defs>
<linearGradient id="paint0_linear_132_609" x1="33.5001" y1="20.4903" x2="12.5514" y2="33.8244" gradientUnits="userSpaceOnUse">
<stop stop-color="#2952E1"/>
<stop offset="1" stop-color="#11319F"/>
</linearGradient>
</defs>
</svg>
