<svg width="131" height="40" viewBox="0 0 131 40" fill="none" xmlns="http://www.w3.org/2000/svg">
<g clip-path="url(#clip0_132_501)">
<path d="M104 33H26L32 39L104 33Z" fill="#2C2C2C"/>
<path d="M116 28V16C116 13.641 117.641 12 120 12C122.358 12 124 13.641 124 16V28H129V16C129 10.8104 126.188 7 121 7C118.641 7 116 8 116 8V7H112V28H116Z" fill="#2C2C2C"/>
<path d="M100.899 7C95.3019 7 92 11.7096 92 18C92 24.6049 96.8349 29 101.888 29C104.453 29 107.078 27.9315 109.798 24L105.843 22C102.578 26.875 96.577 23.9537 95.9552 19H109.798C111.042 11.4515 106.341 7 100.899 7ZM104.854 15H96.944C97.9546 10.0463 103.921 9.73178 104.854 15Z" fill="#2C2C2C"/>
<path d="M90 23C89.5282 23.3145 88.6289 24 88 24C87.2138 24 86 22.9658 86 21V12H90V7H86V2H81V7H79V12H81V21C81 25.7964 84.3835 29 88 29C89.3367 29 91.5063 27.865 93 27L90 23Z" fill="#2C2C2C"/>
<path d="M71 7V19C71 21.359 69.3586 23 67 23C64.6413 23 63 21.359 63 19V7H59V19C59 24.1896 61.811 28 67 28C69.3586 28 71 27 71 27V28H76V7H71Z" fill="#2C2C2C"/>
<path d="M50 17L58 7H51L45 14V0H41V28H45V19L53 28H59L50 17Z" fill="#2C2C2C"/>
<path d="M33 7V8C31.5063 7.05645 29.8082 7 28 7C22.4965 7 19 11.7883 19 18C19 24.2117 22.4179 29 28 29C29.8082 29 31.5848 27.9436 33 27V28H38V7H33ZM28 24C25.2483 24 23 21.381 23 18C23 14.6189 25.2483 12 28 12C30.7517 12 33 14.6189 33 18C33.0787 21.381 30.7517 24 28 24Z" fill="#2C2C2C"/>
<path d="M5 28V20H8L14 28H21L13 18C15.3587 16.3489 17 14.1452 17 11C17 5.88904 13.0317 2 8 2H0V28H5ZM5 7H8C10.28 7 12 8.71973 12 11C12 13.2802 10.28 15 8 15H5V7Z" fill="#2C2C2C"/>
</g>
<defs>
<clipPath id="clip0_132_501">
<rect width="131" height="40" fill="white"/>
</clipPath>
</defs>
</svg>
