<svg width="145" height="40" viewBox="0 0 145 40" fill="none" xmlns="http://www.w3.org/2000/svg">
<g clip-path="url(#clip0_132_514)">
<path d="M132 15V31C133.028 23.0429 137.143 18.4757 144 16V0C136.116 1.41462 132 5.62796 132 15Z" fill="#2C2C2C"/>
<path d="M104 10.1339C103.046 9.86764 102.824 10.1339 102 10.1339C99.7877 10.1339 97.6531 10.7841 98 14.1148V15.11H104V20.0861H98V38H92V20.0861H83V38H77V20.0861H75V15.11H77V13.1196C77 6.54717 80.9224 5.15782 85 5.15782C86.4317 5.15782 87.9589 4.80272 89 5.15782V10.1339C88.0455 9.86764 87.8239 10.1339 87 10.1339C84.7874 10.1339 82.6527 10.7841 83 14.1148V15.11H92V13.1196C92 6.54717 95.9221 5.15782 100 5.15782C101.431 5.15782 102.959 4.80272 104 5.15782V10.1339Z" fill="#2C2C2C"/>
<path fill-rule="evenodd" clip-rule="evenodd" d="M24 27C24 19.9942 28.1441 15 34.9942 15C41.8883 15 47.2913 19.6294 46.9878 29H29.9968C30.2999 31.8556 32.8287 34 35.9936 34C38.6817 34 40.0803 31.8292 40.991 30L45.9883 33C44.1753 36.3971 40.4561 39 35.9936 39C28.97 39 24 34.2283 24 27ZM34.9942 20C31.9162 20 30.2136 21.2783 29.9968 24H40.991C40.8611 21.2783 38.0727 20 34.9942 20Z" fill="#2C2C2C"/>
<path d="M5 16C8.94769 27.2444 10.4793 30.3674 11 33C11.4335 30.0549 12.2695 27.0215 16 16H23L14 39H8L-1 16H5Z" fill="#2C2C2C"/>
<path d="M72 16H66V39H72V16Z" fill="#2C2C2C"/>
<path d="M56 22V21L55 15H50V38H56V29C56 24.067 58.3667 21 62 21V15C57.7341 15.4367 56 17.5443 56 22Z" fill="#2C2C2C"/>
<path d="M66 7H72V12H66V7Z" fill="#2C2C2C"/>
<path d="M129 39L117 29V8L129 18V39Z" fill="#2C2C2C"/>
</g>
<defs>
<clipPath id="clip0_132_514">
<rect width="145" height="40" fill="white"/>
</clipPath>
</defs>
</svg>
